<svg width="21" height="22" viewBox="0 0 21 22" fill="none" xmlns="http://www.w3.org/2000/svg">
<path d="M4.42712 17C4.64233 16.4145 5.04144 15.9074 5.56942 15.5488C6.09739 15.1902 6.72826 14.9976 7.37504 14.9976C8.02182 14.9976 8.65269 15.1902 9.18067 15.5488C9.70865 15.9074 10.1077 16.4145 10.323 17H20.9167V19H10.323C10.1077 19.5855 9.70865 20.0926 9.18067 20.4512C8.65269 20.8099 8.02182 21.0025 7.37504 21.0025C6.72826 21.0025 6.09739 20.8099 5.56942 20.4512C5.04144 20.0926 4.64233 19.5855 4.42712 19H0.083374V17H4.42712ZM10.6771 10C10.8923 9.41448 11.2914 8.90744 11.8194 8.5488C12.3474 8.19015 12.9783 7.99756 13.625 7.99756C14.2718 7.99756 14.9027 8.19015 15.4307 8.5488C15.9586 8.90744 16.3577 9.41448 16.573 10H20.9167V12H16.573C16.3577 12.5855 15.9586 13.0926 15.4307 13.4512C14.9027 13.8099 14.2718 14.0025 13.625 14.0025C12.9783 14.0025 12.3474 13.8099 11.8194 13.4512C11.2914 13.0926 10.8923 12.5855 10.6771 12H0.083374V10H10.6771ZM4.42712 3.00001C4.64233 2.41448 5.04144 1.90744 5.56942 1.5488C6.09739 1.19015 6.72826 0.997559 7.37504 0.997559C8.02182 0.997559 8.65269 1.19015 9.18067 1.5488C9.70865 1.90744 10.1077 2.41448 10.323 3.00001H20.9167V5.00001H10.323C10.1077 5.58554 9.70865 6.09258 9.18067 6.45122C8.65269 6.80986 8.02182 7.00246 7.37504 7.00246C6.72826 7.00246 6.09739 6.80986 5.56942 6.45122C5.04144 6.09258 4.64233 5.58554 4.42712 5.00001H0.083374V3.00001H4.42712ZM7.37504 5.00001C7.65131 5.00001 7.91626 4.89465 8.11161 4.70712C8.30696 4.51958 8.41671 4.26523 8.41671 4.00001C8.41671 3.73479 8.30696 3.48044 8.11161 3.2929C7.91626 3.10537 7.65131 3.00001 7.37504 3.00001C7.09877 3.00001 6.83382 3.10537 6.63847 3.2929C6.44312 3.48044 6.33337 3.73479 6.33337 4.00001C6.33337 4.26523 6.44312 4.51958 6.63847 4.70712C6.83382 4.89465 7.09877 5.00001 7.37504 5.00001ZM13.625 12C13.9013 12 14.1663 11.8947 14.3616 11.7071C14.557 11.5196 14.6667 11.2652 14.6667 11C14.6667 10.7348 14.557 10.4804 14.3616 10.2929C14.1663 10.1054 13.9013 10 13.625 10C13.3488 10 13.0838 10.1054 12.8885 10.2929C12.6931 10.4804 12.5834 10.7348 12.5834 11C12.5834 11.2652 12.6931 11.5196 12.8885 11.7071C13.0838 11.8947 13.3488 12 13.625 12ZM7.37504 19C7.65131 19 7.91626 18.8947 8.11161 18.7071C8.30696 18.5196 8.41671 18.2652 8.41671 18C8.41671 17.7348 8.30696 17.4804 8.11161 17.2929C7.91626 17.1054 7.65131 17 7.37504 17C7.09877 17 6.83382 17.1054 6.63847 17.2929C6.44312 17.4804 6.33337 17.7348 6.33337 18C6.33337 18.2652 6.44312 18.5196 6.63847 18.7071C6.83382 18.8947 7.09877 19 7.37504 19Z" fill="#339CB3"/>
</svg>
