<svg width="34" height="32" viewBox="0 0 34 32" fill="none" xmlns="http://www.w3.org/2000/svg">
<path d="M33.0547 7.07815C32.5311 5.8658 31.7761 4.76717 30.832 3.84378C29.8872 2.91763 28.7733 2.18163 27.5508 1.67581C26.2831 1.14922 24.9235 0.879681 23.5508 0.88284C21.625 0.88284 19.7461 1.41018 18.1133 2.40628C17.7227 2.64456 17.3516 2.90628 17 3.19143C16.6484 2.90628 16.2773 2.64456 15.8867 2.40628C14.2539 1.41018 12.375 0.88284 10.4492 0.88284C9.0625 0.88284 7.71875 1.14847 6.44922 1.67581C5.22266 2.18362 4.11719 2.91409 3.16797 3.84378C2.22264 4.76613 1.46749 5.86502 0.945312 7.07815C0.402344 8.33987 0.125 9.67972 0.125 11.0586C0.125 12.3594 0.390625 13.7149 0.917969 15.0938C1.35938 16.2461 1.99219 17.4414 2.80078 18.6485C4.08203 20.5586 5.84375 22.5508 8.03125 24.5703C11.6562 27.918 15.2461 30.2305 15.3984 30.3242L16.3242 30.918C16.7344 31.1797 17.2617 31.1797 17.6719 30.918L18.5977 30.3242C18.75 30.2266 22.3359 27.918 25.9648 24.5703C28.1523 22.5508 29.9141 20.5586 31.1953 18.6485C32.0039 17.4414 32.6406 16.2461 33.0781 15.0938C33.6055 13.7149 33.8711 12.3594 33.8711 11.0586C33.875 9.67972 33.5977 8.33987 33.0547 7.07815Z" fill="#EC5DB3"/>
</svg>
